<mxfile host="app.diagrams.net" modified="2023-04-17T03:58:24.559Z" agent="Mozilla/5.0 (Windows NT 10.0; Win64; x64) AppleWebKit/537.36 (KHTML, like Gecko) Chrome/112.0.0.0 Safari/537.36" version="21.1.8" etag="A6nJcBahhbLzYqYOBUnf" type="github">
  <diagram name="Trang-1" id="1HNiS9ZMRNi7ZrRqHr5Z">
    <mxGraphModel>
      <root>
        <mxCell id="0" />
        <mxCell id="1" parent="0" />
      </root>
    </mxGraphModel>
  </diagram>
</mxfile>
